ffmpeg version N-49973-g75758f8 Copyright (c) 2000-2013 the FFmpeg developers
  built on Feb 15 2013 12:49:53 with gcc 4.4.6 (GCC) 20120305 (Red Hat 4.4.6-4)

Customised for Perform Group PLC by D. Letton (darell.letton@performgroup.com)

  libavutil      52. 17.101 / 52. 17.101
  libavcodec     54. 91.103 / 54. 91.103
  libavformat    54. 63.100 / 54. 63.100
  libavdevice    54.  3.103 / 54.  3.103
  libavfilter     3. 37.101 /  3. 37.101
  libswscale      2.  2.100 /  2.  2.100
  libswresample   0. 17.102 /  0. 17.102
  libpostproc    52.  2.100 / 52.  2.100
[mpegts @ 0x38b5aa0] Unable to seek back to the start
[h264 @ 0x38e21c0] non-existing SPS 0 referenced in buffering period
[h264 @ 0x38e21c0] non-existing PPS referenced
[h264 @ 0x38e21c0] non-existing SPS 0 referenced in buffering period
[h264 @ 0x38e21c0] non-existing PPS 0 referenced
[h264 @ 0x38e21c0] decode_slice_header error
[h264 @ 0x38e21c0] no frame!
[h264 @ 0x38e21c0] non-existing SPS 0 referenced in buffering period
[h264 @ 0x38e21c0] non-existing PPS referenced
[h264 @ 0x38e21c0] non-existing SPS 0 referenced in buffering period
[h264 @ 0x38e21c0] non-existing PPS 0 referenced
[h264 @ 0x38e21c0] decode_slice_header error
[h264 @ 0x38e21c0] no frame!
[h264 @ 0x38e21c0] non-existing SPS 0 referenced in buffering period
[h264 @ 0x38e21c0] non-existing PPS referenced
[h264 @ 0x38e21c0] non-existing SPS 0 referenced in buffering period
[h264 @ 0x38e21c0] non-existing PPS 0 referenced
[h264 @ 0x38e21c0] decode_slice_header error
[h264 @ 0x38e21c0] no frame!
[h264 @ 0x38e21c0] non-existing SPS 0 referenced in buffering period
[h264 @ 0x38e21c0] non-existing PPS referenced
[h264 @ 0x38e21c0] non-existing SPS 0 referenced in buffering period
[h264 @ 0x38e21c0] non-existing PPS 0 referenced
[h264 @ 0x38e21c0] decode_slice_header error
[h264 @ 0x38e21c0] no frame!
[h264 @ 0x38e21c0] non-existing SPS 0 referenced in buffering period
[h264 @ 0x38e21c0] non-existing PPS referenced
[h264 @ 0x38e21c0] non-existing SPS 0 referenced in buffering period
[h264 @ 0x38e21c0] non-existing PPS 0 referenced
[h264 @ 0x38e21c0] decode_slice_header error
[h264 @ 0x38e21c0] no frame!
[h264 @ 0x38e21c0] mmco: unref short failure
    Last message repeated 1 times
[mp3 @ 0x38e8580] Header missing
[mp3 @ 0x38ee940] Header missing
[mpegts @ 0x38b5aa0] max_analyze_duration 5000000 reached at 5000000 microseconds
[mpegts @ 0x38b5aa0] Estimating duration from bitrate, this may be inaccurate
Input #0, mpegts, from 'udp://@225.0.1.10:5004':
  Duration: N/A, start: 55273.005544, bitrate: 256 kb/s
  Program 290 
    Metadata:
      service_name    : GBI Racing
      service_provider: ARQIVA
  No Program
    Stream #0:0[0x835]: Video: h264 (Main) ([27][0][0][0] / 0x001B), yuv420p, 720x576 [SAR 16:11 DAR 20:11], 25 fps, 50 tbr, 90k tbn, 50 tbc
    Stream #0:1[0x836](eng,rus): Audio: mp2 ([4][0][0][0] / 0x0004), 48000 Hz, stereo, s16p, 128 kb/s (clean effects)
    Stream #0:2[0x837](ud1,ud2): Audio: mp2 ([4][0][0][0] / 0x0004), 48000 Hz, stereo, s16p, 128 kb/s
    Stream #0:3[0x83f](eng): Subtitle: dvb_teletext ([6][0][0][0] / 0x0006)
[libx264 @ 0x3944500] using SAR=16/11
[libx264 @ 0x3944500] using cpu capabilities: MMX2 SSE2Fast SSSE3 FastShuffle SSE4.2
[libx264 @ 0x3944500] profile High, level 3.0
[libx264 @ 0x3944500] 264 - core 129 r2245 bc13772 - H.264/MPEG-4 AVC codec - Copyleft 2003-2013 - http://www.videolan.org/x264.html - options: cabac=1 ref=3 deblock=1:0:0 analyse=0x3:0x113 me=hex subme=7 psy=1 psy_rd=1.00:0.00 mixed_ref=1 me_range=16 chroma_me=1 trellis=1 8x8dct=1 cqm=0 deadzone=21,11 fast_pskip=1 chroma_qp_offset=-2 threads=12 lookahead_threads=2 sliced_threads=0 nr=0 decimate=1 interlaced=0 bluray_compat=0 constrained_intra=0 bframes=3 b_pyramid=2 b_adapt=1 b_bias=0 direct=1 weightb=1 open_gop=0 weightp=2 keyint=250 keyint_min=25 scenecut=40 intra_refresh=0 rc_lookahead=40 rc=abr mbtree=1 bitrate=800 ratetol=1.0 qcomp=0.60 qpmin=0 qpmax=69 qpstep=4 ip_ratio=1.40 aq=1:1.00
Output #0, flv, to 'tcp://188.227.181.62:6666':
  Metadata:
    streamName      : GBI800
    encoder         : Lavf54.63.100
    Stream #0:0: Video: h264 ([7][0][0][0] / 0x0007), yuv420p, 720x576 [SAR 16:11 DAR 20:11], q=-1--1, 800 kb/s, 1k tbn, 25 tbc
    Stream #0:1(eng,rus): Audio: aac ([10][0][0][0] / 0x000A), 48000 Hz, stereo, fltp, 128 kb/s (clean effects)
Stream mapping:
  Stream #0:0 -> #0:0 (h264 -> libx264)
  Stream #0:1 -> #0:1 (mp2 -> aac)
Press [q] to stop, [?] for help
[h264 @ 0x498c8e0] Missing reference picture, default is 0
[h264 @ 0x498c8e0] decode_slice_header error
[h264 @ 0x49d1720] Missing reference picture, default is 65397
[h264 @ 0x4a37800] Missing reference picture, default is 65397
[h264 @ 0x4a9d8e0] Missing reference picture, default is 65397
[h264 @ 0x4b039c0] Missing reference picture, default is 65397
[h264 @ 0x4bcfb80] mmco: unref short failure
    Last message repeated 1 times
[mp2 @ 0x38e8580] Header missing
Error while decoding stream #0:1: Invalid data found when processing input
[h264 @ 0x4a9d8e0] mmco: unref short failure
    Last message repeated 1 times
[h264 @ 0x498c8e0] mmco: unref short failure
    Last message repeated 1 times
frame=   46 fps=0.0 q=0.0 size=       0kB time=00:00:01.96 bitrate=   1.7kbits/s    frame=   68 fps= 53 q=31.0 size=      44kB time=00:00:02.96 bitrate= 121.2kbits/s    frame=   84 fps= 47 q=23.0 size=      84kB time=00:00:03.56 bitrate= 191.9kbits/s    frame=  107 fps= 47 q=23.0 size=     191kB time=00:00:04.48 bitrate= 348.4kbits/s    frame=  122 fps= 44 q=22.0 size=     251kB time=00:00:05.03 bitrate= 408.2kbits/s    frame=  135 fps= 41 q=23.0 size=     326kB time=00:00:05.69 bitrate= 469.1kbits/s    frame=  148 fps= 39 q=23.0 size=     390kB time=00:00:06.14 bitrate= 519.5kbits/s    frame=  158 fps= 37 q=23.0 size=     431kB time=00:00:06.51 bitrate= 542.2kbits/s    frame=  176 fps= 37 q=22.0 size=     505kB time=00:00:07.23 bitrate= 572.4kbits/s    frame=  207 fps= 39 q=23.0 size=     655kB time=00:00:08.51 bitrate= 630.0kbits/s    frame=  231 fps= 40 q=22.0 size=     761kB time=00:00:09.43 bitrate= 661.0kbits/s    frame=  261 fps= 41 q=23.0 size=     903kB time=00:00:10.69 bitrate= 692.0kbits/s    frame=  291 fps= 43 q=23.0 size=    1050kB time=00:00:11.82 bitrate= 727.4kbits/s    frame=  317 fps= 43 q=23.0 size=    1202kB time=00:00:12.91 bitrate= 762.5kbits/s    frame=  336 fps= 43 q=23.0 size=    1284kB time=00:00:13.65 bitrate= 770.3kbits/s    frame=  352 fps= 42 q=23.0 size=    1351kB time=00:00:14.38 bitrate= 769.7kbits/s    frame=  365 fps= 41 q=23.0 size=    1399kB time=00:00:14.91 bitrate= 768.5kbits/s    frame=  380 fps= 40 q=23.0 size=    1470kB time=00:00:15.47 bitrate= 778.3kbits/s    frame=  389 fps= 39 q=23.0 size=    1510kB time=00:00:15.83 bitrate= 781.6kbits/s    frame=  401 fps= 38 q=23.0 size=    1563kB time=00:00:16.38 bitrate= 781.6kbits/s    frame=  414 fps= 38 q=23.0 size=    1618kB time=00:00:16.75 bitrate= 791.4kbits/s    frame=  429 fps= 37 q=23.0 size=    1684kB time=00:00:17.30 bitrate= 797.0kbits/s    frame=  443 fps= 36 q=23.0 size=    1755kB time=00:00:17.85 bitrate= 805.2kbits/s    frame=  461 fps= 36 q=23.0 size=    1829kB time=00:00:18.75 bitrate= 799.0kbits/s    frame=  477 fps= 35 q=23.0 size=    1899kB time=00:00:19.31 bitrate= 805.8kbits/s    frame=  493 fps= 35 q=23.0 size=    1982kB time=00:00:19.86 bitrate= 817.2kbits/s    frame=  506 fps= 35 q=23.0 size=    2034kB time=00:00:20.41 bitrate= 816.2kbits/s    frame=  521 fps= 35 q=23.0 size=    2094kB time=00:00:21.14 bitrate= 811.1kbits/s    frame=  534 fps= 34 q=23.0 size=    2155kB time=00:00:21.57 bitrate= 818.5kbits/s    frame=  548 fps= 34 q=23.0 size=    2222kB time=00:00:22.06 bitrate= 825.2kbits/s    frame=  560 fps= 34 q=23.0 size=    2320kB time=00:00:22.59 bitrate= 841.1kbits/s    frame=  574 fps= 34 q=23.0 size=    2382kB time=00:00:23.15 bitrate= 843.0kbits/s    frame=  585 fps= 33 q=23.0 size=    2435kB time=00:00:23.61 bitrate= 844.5kbits/s    frame=  599 fps= 33 q=23.0 size=    2495kB time=00:00:24.06 bitrate= 849.3kbits/s    frame=  612 fps= 33 q=23.0 size=    2542kB time=00:00:24.62 bitrate= 845.7kbits/s    frame=  624 fps= 33 q=23.0 size=    2597kB time=00:00:25.17 bitrate= 845.1kbits/s    frame=  636 fps= 32 q=23.0 size=    2651kB time=00:00:25.71 bitrate= 844.8kbits/s    frame=  649 fps= 32 q=23.0 size=    2710kB time=00:00:26.09 bitrate= 850.8kbits/s    frame=  662 fps= 32 q=23.0 size=    2760kB time=00:00:26.62 bitrate= 849.1kbits/s    frame=  675 fps= 32 q=23.0 size=    2820kB time=00:00:27.18 bitrate= 849.9kbits/s    frame=  688 fps= 32 q=23.0 size=    2883kB time=00:00:27.73 bitrate= 851.6kbits/s    frame=  699 fps= 32 q=23.0 size=    2933kB time=00:00:28.14 bitrate= 853.8kbits/s    frame=  712 fps= 31 q=23.0 size=    2981kB time=00:00:28.67 bitrate= 851.6kbits/s    frame=  725 fps= 31 q=23.0 size=    3038kB time=00:00:29.20 bitrate= 852.2kbits/s    frame=  739 fps= 31 q=23.0 size=    3108kB time=00:00:29.76 bitrate= 855.4kbits/s    frame=  752 fps= 31 q=23.0 size=    3163kB time=00:00:30.31 bitrate= 854.7kbits/s    frame=  764 fps= 31 q=23.0 size=    3213kB time=00:00:30.83 bitrate= 853.7kbits/s    frame=  777 fps= 31 q=23.0 size=    3275kB time=00:00:31.23 bitrate= 859.1kbits/s    frame=  790 fps= 31 q=23.0 size=    3342kB time=00:00:31.76 bitrate= 861.9kbits/s    frame=  803 fps= 31 q=23.0 size=    3395kB time=00:00:32.30 bitrate= 861.1kbits/s    frame=  816 fps= 31 q=23.0 size=    3501kB time=00:00:32.85 bitrate= 872.8kbits/s    frame=  828 fps= 30 q=23.0 size=    3554kB time=00:00:33.26 bitrate= 875.4kbits/s    frame=  841 fps= 30 q=23.0 size=    3613kB time=00:00:33.77 bitrate= 876.5kbits/s    frame=  854 fps= 30 q=23.0 size=    3667kB time=00:00:34.30 bitrate= 875.8kbits/s    frame=  867 fps= 30 q=23.0 size=    3715kB time=00:00:34.86 bitrate= 873.0kbits/s    frame=  879 fps= 30 q=23.0 size=    3772kB time=00:00:35.41 bitrate= 872.5kbits/s    frame=  891 fps= 30 q=23.0 size=    3828kB time=00:00:35.80 bitrate= 875.9kbits/s    frame=  904 fps= 30 q=23.0 size=    3876kB time=00:00:36.35 bitrate= 873.3kbits/s    frame=  917 fps= 30 q=23.0 size=    3935kB time=00:00:36.88 bitrate= 873.8kbits/s    frame=  931 fps= 30 q=23.0 size=    3992kB time=00:00:37.44 bitrate= 873.5kbits/s    frame=  943 fps= 30 q=23.0 size=    4041kB time=00:00:37.99 bitrate= 871.1kbits/s    frame=  956 fps= 30 q=23.0 size=    4100kB time=00:00:38.44 bitrate= 873.7kbits/s    frame=  970 fps= 29 q=23.0 size=    4169kB time=00:00:38.89 bitrate= 878.2kbits/s    frame=  982 fps= 29 q=23.0 size=    4220kB time=00:00:39.44 bitrate= 876.4kbits/s    frame=  995 fps= 29 q=23.0 size=    4275kB time=00:00:40.00 bitrate= 875.4kbits/s    frame= 1008 fps= 29 q=23.0 size=    4334kB time=00:00:40.55 bitrate= 875.4kbits/s    frame= 1020 fps= 29 q=23.0 size=    4398kB time=00:00:40.94 bitrate= 879.9kbits/s    frame= 1033 fps= 29 q=23.0 size=    4451kB time=00:00:41.47 bitrate= 879.3kbits/s    frame= 1046 fps= 29 q=20.0 size=    4504kB time=00:00:42.03 bitrate= 877.9kbits/s    frame= 1059 fps= 29 q=23.0 size=    4614kB time=00:00:42.54 bitrate= 888.6kbits/s    frame= 1071 fps= 29 q=23.0 size=    4672kB time=00:00:42.99 bitrate= 890.3kbits/s    frame= 1083 fps= 29 q=23.0 size=    4716kB time=00:00:43.52 bitrate= 887.6kbits/s    frame= 1096 fps= 29 q=23.0 size=    4768kB time=00:00:44.03 bitrate= 886.9kbits/s    frame= 1109 fps= 29 q=23.0 size=    4827kB time=00:00:44.56 bitrate= 887.2kbits/s    frame= 1123 fps= 29 q=23.0 size=    4890kB time=00:00:45.12 bitrate= 887.8kbits/s    frame= 1136 fps= 29 q=23.0 size=    4938kB time=00:00:45.67 bitrate= 885.7kbits/s    frame= 1149 fps= 29 q=23.0 size=    4997kB time=00:00:46.21 bitrate= 885.8kbits/s    frame= 1162 fps= 29 q=23.0 size=    5061kB time=00:00:46.59 bitrate= 889.8kbits/s    frame= 1162 fps= 28 q=23.0 size=    5061kB time=00:00:46.63 bitrate= 889.0kbits/s    frame= 1182 fps= 28 q=23.0 size=    5144kB time=00:00:47.49 bitrate= 887.4kbits/s    frame= 1200 fps= 28 q=23.0 size=    5217kB time=00:00:48.23 bitrate= 886.1kbits/s    frame= 1212 fps= 28 q=23.0 size=    5281kB time=00:00:48.62 bitrate= 889.7kbits/s    frame= 1225 fps= 28 q=23.0 size=    5337kB time=00:00:49.15 bitrate= 889.5kbits/s    frame= 1238 fps= 28 q=23.0 size=    5390kB time=00:00:49.71 bitrate= 888.3kbits/s    frame= 1251 fps= 28 q=23.0 size=    5450kB time=00:00:50.24 bitrate= 888.6kbits/s    frame= 1263 fps= 28 q=23.0 size=    5503kB time=00:00:50.67 bitrate= 889.7kbits/s    frame= 1275 fps= 28 q=23.0 size=    5562kB time=00:00:51.20 bitrate= 889.9kbits/s    frame= 1288 fps= 28 q=23.0 size=    5609kB time=00:00:51.73 bitrate= 888.2kbits/s    frame= 1301 fps= 28 q=23.0 size=    5666kB time=00:00:52.27 bitrate= 888.0kbits/s    frame= 1315 fps= 28 q=23.0 size=    5784kB time=00:00:52.80 bitrate= 897.3kbits/s    frame= 1328 fps= 28 q=23.0 size=    5838kB time=00:00:53.35 bitrate= 896.3kbits/s    frame= 1339 fps= 28 q=23.0 size=    5882kB time=00:00:53.78 bitrate= 895.9kbits/s    frame= 1354 fps= 28 q=23.0 size=    5948kB time=00:00:54.25 bitrate= 898.2kbits/s    frame= 1367 fps= 28 q=23.0 size=    6015kB time=00:00:54.80 bitrate= 899.0kbits/s    frame= 1380 fps= 28 q=23.0 size=    6062kB time=00:00:55.36 bitrate= 897.0kbits/s    frame= 1393 fps= 28 q=23.0 size=    6116kB time=00:00:55.91 bitrate= 896.0kbits/s    frame= 1404 fps= 28 q=23.0 size=    6169kB time=00:00:56.34 bitrate= 896.9kbits/s    frame= 1418 fps= 28 q=23.0 size=    6230kB time=00:00:56.83 bitrate= 898.0kbits/s    frame= 1431 fps= 28 q=23.0 size=    6285kB time=00:00:57.39 bitrate= 897.1kbits/s    frame= 1444 fps= 28 q=23.0 size=    6338kB time=00:00:57.92 bitrate= 896.4kbits/s    frame= 1456 fps= 28 q=23.0 size=    6394kB time=00:00:58.47 bitrate= 895.7kbits/s    frame= 1457 fps= 27 q=23.0 size=    6396kB time=00:00:58.47 bitrate= 896.0kbits/s    frame= 1477 fps= 27 q=23.0 size=    6492kB time=00:00:59.20 bitrate= 898.3kbits/s    frame= 1498 fps= 27 q=23.0 size=    6578kB time=00:01:00.12 bitrate= 896.4kbits/s    frame= 1519 fps= 27 q=23.0 size=    6677kB time=00:01:01.05 bitrate= 895.9kbits/s    frame= 1537 fps= 27 q=23.0 size=    6754kB time=00:01:01.57 bitrate= 898.6kbits/s    frame= 1551 fps= 27 q=23.0 size=    6817kB time=00:01:02.14 bitrate= 898.6kbits/s    frame= 1567 fps= 27 q=23.0 size=    6937kB time=00:01:02.87 bitrate= 903.8kbits/s    frame= 1587 fps= 27 q=23.0 size=    7017kB time=00:01:03.59 bitrate= 903.9kbits/s    frame= 1605 fps= 27 q=23.0 size=    7097kB time=00:01:04.38 bitrate= 903.0kbits/s    frame= 1619 fps= 27 q=23.0 size=    7167kB time=00:01:04.89 bitrate= 904.7kbits/s    frame= 1632 fps= 27 q=23.0 size=    7214kB time=00:01:05.45 bitrate= 902.9kbits/s    frame= 1632 fps= 27 q=23.0 size=    7214kB time=00:01:05.45 bitrate= 902.9kbits/s    frame= 1651 fps= 27 q=23.0 size=    7297kB time=00:01:06.35 bitrate= 900.9kbits/s    frame= 1671 fps= 27 q=23.0 size=    7394kB time=00:01:07.07 bitrate= 903.0kbits/s    frame= 1687 fps= 27 q=23.0 size=    7455kB time=00:01:07.63 bitrate= 903.0kbits/s    frame= 1701 fps= 27 q=23.0 size=    7518kB time=00:01:08.18 bitrate= 903.3kbits/s    frame= 1714 fps= 27 q=23.0 size=    7577kB time=00:01:08.73 bitrate= 903.0kbits/s    frame= 1727 fps= 27 q=23.0 size=    7635kB time=00:01:09.29 bitrate= 902.7kbits/s    frame= 1739 fps= 27 q=23.0 size=    7682kB time=00:01:09.82 bitrate= 901.2kbits/s    frame= 1752 fps= 27 q=23.0 size=    7742kB time=00:01:10.19 bitrate= 903.6kbits/s    frame= 1765 fps= 27 q=23.0 size=    7809kB time=00:01:10.74 bitrate= 904.2kbits/s    frame= 1777 fps= 27 q=23.0 size=    7860kB time=00:01:11.29 bitrate= 903.1kbits/s    frame= 1790 fps= 27 q=23.0 size=    7911kB time=00:01:11.83 bitrate= 902.2kbits/s    frame= 1803 fps= 27 q=23.0 size=    7967kB time=00:01:12.21 bitrate= 903.8kbits/s    frame= 1815 fps= 27 q=23.0 size=    8071kB time=00:01:12.79 bitrate= 908.3kbits/s    frame= 1828 fps= 27 q=23.0 size=    8128kB time=00:01:13.32 bitrate= 908.1kbits/s    frame= 1841 fps= 27 q=23.0 size=    8180kB time=00:01:13.83 bitrate= 907.6kbits/s    frame= 1855 fps= 27 q=23.0 size=    8240kB time=00:01:14.39 bitrate= 907.4kbits/s    frame= 1868 fps= 27 q=23.0 size=    8300kB time=00:01:14.94 bitrate= 907.2kbits/s    frame= 1881 fps= 27 q=23.0 size=    8354kB time=00:01:15.50 bitrate= 906.4kbits/s    frame= 1881 fps= 27 q=23.0 size=    8354kB time=00:01:15.50 bitrate= 906.4kbits/s    frame= 1898 fps= 27 q=23.0 size=    8433kB time=00:01:16.05 bitrate= 908.4kbits/s    frame= 1917 fps= 27 q=23.0 size=    8509kB time=00:01:16.80 bitrate= 907.6kbits/s    frame= 1937 fps= 27 q=23.0 size=    8600kB time=00:01:17.67 bitrate= 907.0kbits/s    frame= 1960 fps= 27 q=23.0 size=    8699kB time=00:01:18.61 bitrate= 906.4kbits/s    frame= 1973 fps= 27 q=23.0 size=    8756kB time=00:01:19.15 bitrate= 906.2kbits/s    frame= 1987 fps= 27 q=23.0 size=    8821kB time=00:01:19.70 bitrate= 906.6kbits/s    frame= 2000 fps= 27 q=23.0 size=    8881kB time=00:01:20.25 bitrate= 906.5kbits/s    frame= 2013 fps= 27 q=23.0 size=    8936kB time=00:01:20.62 bitrate= 908.0kbits/s    frame= 2026 fps= 27 q=23.0 size=    8991kB time=00:01:21.15 bitrate= 907.6kbits/s    frame= 2026 fps= 27 q=23.0 size=    8991kB time=00:01:21.19 bitrate= 907.1kbits/s    frame= 2043 fps= 27 q=23.0 size=    9076kB time=00:01:21.90 bitrate= 907.8kbits/s    frame= 2065 fps= 27 q=23.0 size=    9216kB time=00:01:22.81 bitrate= 911.6kbits/s    frame= 2081 fps= 27 q=23.0 size=    9286kB time=00:01:23.54 bitrate= 910.5kbits/s    frame= 2096 fps= 27 q=23.0 size=    9352kB time=00:01:24.09 bitrate= 911.0kbits/s    frame= 2113 fps= 27 q=23.0 size=    9425kB time=00:01:24.65 bitrate= 912.1kbits/s    frame= 2129 fps= 27 q=23.0 size=    9492kB time=00:01:25.37 bitrate= 910.8kbits/s    frame= 2143 fps= 27 q=23.0 size=    9556kB time=00:01:25.93 bitrate= 911.0kbits/s    frame= 2144 fps= 26 q=23.0 size=    9559kB time=00:01:25.93 bitrate= 911.2kbits/s    frame= 2162 fps= 26 q=23.0 size=    9633kB time=00:01:26.65 bitrate= 910.6kbits/s    frame= 2176 fps= 26 q=23.0 size=    9696kB time=00:01:27.23 bitrate= 910.5kbits/s    frame= 2196 fps= 27 q=23.0 size=    9793kB time=00:01:27.93 bitrate= 912.2kbits/s    frame= 2196 fps= 26 q=23.0 size=    9793kB time=00:01:27.96 bitrate= 912.0kbits/s    frame= 2217 fps= 26 q=23.0 size=    9877kB time=00:01:28.87 bitrate= 910.4kbits/s    frame= 2232 fps= 26 q=23.0 size=    9948kB time=00:01:29.41 bitrate= 911.5kbits/s    frame= 2251 fps= 26 q=23.0 size=   10031kB time=00:01:30.32 bitrate= 909.8kbits/s    frame= 2252 fps= 25 q=23.0 size=   10033kB time=00:01:30.32 bitrate= 909.9kbits/s    frame= 2267 fps= 25 q=23.0 size=   10096kB time=00:01:30.86 bitrate= 910.2kbits/s    frame= 2282 fps= 25 q=23.0 size=   10169kB time=00:01:31.41 bitrate= 911.3kbits/s    frame= 2295 fps= 25 q=23.0 size=   10230kB time=00:01:31.99 bitrate= 910.9kbits/s    frame= 2309 fps= 25 q=23.0 size=   10336kB time=00:01:32.71 bitrate= 913.2kbits/s    frame= 2320 fps= 25 q=23.0 size=   10382kB time=00:01:33.05 bitrate= 914.0kbits/s    frame= 2335 fps= 25 q=23.0 size=   10451kB time=00:01:33.61 bitrate= 914.5kbits/s    frame= 2336 fps= 25 q=23.0 size=   10453kB time=00:01:33.61 bitrate= 914.7kbits/s    frame= 2358 fps= 25 q=23.0 size=   10550kB time=00:01:34.53 bitrate= 914.2kbits/s    frame= 2377 fps= 25 q=23.0 size=   10630kB time=00:01:35.25 bitrate= 914.2kbits/s    frame= 2402 fps= 25 q=23.0 size=   10744kB time=00:01:36.19 bitrate= 915.0kbits/s    frame= 2432 fps= 25 q=23.0 size=   10867kB time=00:01:37.45 bitrate= 913.5kbits/s    frame= 2464 fps= 26 q=23.0 size=   11009kB time=00:01:38.90 bitrate= 911.9kbits/s    frame= 2496 fps= 26 q=23.0 size=   11159kB time=00:01:40.03 bitrate= 913.8kbits/s    frame= 2529 fps= 26 q=23.0 size=   11297kB time=00:01:41.29 bitrate= 913.6kbits/s    frame= 2561 fps= 26 q=23.0 size=   11484kB time=00:01:42.76 bitrate= 915.5kbits/s    frame= 2590 fps= 26 q=23.0 size=   11622kB time=00:01:43.87 bitrate= 916.6kbits/s    frame= 2617 fps= 26 q=23.0 size=   11730kB time=00:01:44.81 bitrate= 916.8kbits/s    frame= 2630 fps= 26 q=23.0 size=   11788kB time=00:01:45.32 bitrate= 916.8kbits/s    frame= 2643 fps= 26 q=23.0 size=   11852kB time=00:01:45.88 bitrate= 917.0kbits/s    frame= 2655 fps= 26 q=23.0 size=   11898kB time=00:01:46.43 bitrate= 915.8kbits/s    frame= 2667 fps= 26 q=23.0 size=   11945kB time=00:01:46.84 bitrate= 915.9kbits/s    frame= 2679 fps= 26 q=23.0 size=   12003kB time=00:01:47.35 bitrate= 915.9kbits/s    frame= 2692 fps= 26 q=23.0 size=   12062kB time=00:01:47.90 bitrate= 915.7kbits/s    frame= 2692 fps= 26 q=23.0 size=   12062kB time=00:01:47.92 bitrate= 915.6kbits/s    frame= 2709 fps= 26 q=23.0 size=   12133kB time=00:01:48.61 bitrate= 915.1kbits/s    frame= 2724 fps= 26 q=23.0 size=   12197kB time=00:01:49.16 bitrate= 915.3kbits/s    frame= 2740 fps= 26 q=23.0 size=   12270kB time=00:01:49.89 bitrate= 914.7kbits/s    frame= 2759 fps= 26 q=23.0 size=   12349kB time=00:01:50.46 bitrate= 915.8kbits/s    frame= 2775 fps= 26 q=23.0 size=   12422kB time=00:01:51.23 bitrate= 914.8kbits/s    frame= 2788 fps= 26 q=23.0 size=   12485kB time=00:01:51.74 bitrate= 915.2kbits/s    frame= 2801 fps= 26 q=23.0 size=   12540kB time=00:01:52.30 bitrate= 914.7kbits/s    frame= 2814 fps= 26 q=23.0 size=   12635kB time=00:01:52.81 bitrate= 917.5kbits/s    frame= 2814 fps= 26 q=23.0 size=   12635kB time=00:01:52.81 bitrate= 917.5kbits/s    frame= 2847 fps= 26 q=23.0 size=   12791kB time=00:01:54.11 bitrate= 918.2kbits/s    frame= 2860 fps= 26 q=23.0 size=   12841kB time=00:01:54.67 bitrate= 917.4kbits/s    frame= 2873 fps= 26 q=23.0 size=   12900kB time=00:01:55.22 bitrate= 917.1kbits/s    frame= 2886 fps= 26 q=23.0 size=   12952kB time=00:01:55.75 bitrate= 916.6kbits/s    frame= 2899 fps= 26 q=23.0 size=   13005kB time=00:01:56.14 bitrate= 917.3kbits/s    frame= 2913 fps= 26 q=23.0 size=   13073kB time=00:01:56.67 bitrate= 917.9kbits/s    frame= 2926 fps= 26 q=23.0 size=   13130kB time=00:01:57.20 bitrate= 917.7kbits/s    frame= 2939 fps= 26 q=23.0 size=   13179kB time=00:01:57.76 bitrate= 916.8kbits/s    frame= 2951 fps= 26 q=23.0 size=   13236kB time=00:01:58.27 bitrate= 916.8kbits/s    frame= 2965 fps= 26 q=23.0 size=   13305kB time=00:01:58.68 bitrate= 918.4kbits/s    frame= 2977 fps= 26 q=23.0 size=   13355kB time=00:01:59.23 bitrate= 917.6kbits/s    frame= 2990 fps= 26 q=23.0 size=   13405kB time=00:01:59.79 bitrate= 916.7kbits/s    frame= 2998 fps= 26 q=23.0 size=   13441kB time=00:02:00.13 bitrate= 916.5kbits/s    frame= 3012 fps= 26 q=23.0 size=   13509kB time=00:02:00.68 bitrate= 917.0kbits/s    frame= 3027 fps= 26 q=23.0 size=   13575kB time=00:02:01.28 bitrate= 916.9kbits/s    frame= 3038 fps= 26 q=23.0 size=   13619kB time=00:02:01.62 bitrate= 917.3kbits/s    frame= 3047 fps= 26 q=23.0 size=   13659kB time=00:02:02.00 bitrate= 917.1kbits/s    frame= 3062 fps= 26 q=23.0 size=   13775kB time=00:02:02.71 bitrate= 919.6kbits/s    frame= 3075 fps= 26 q=23.0 size=   13834kB time=00:02:03.26 bitrate= 919.4kbits/s    frame= 3095 fps= 26 q=23.0 size=   13912kB time=00:02:04.01 bitrate= 919.0kbits/s    frame= 3108 fps= 26 q=23.0 size=   13969kB time=00:02:04.52 bitrate= 919.0kbits/s    frame= 3120 fps= 26 q=23.0 size=   14031kB time=00:02:04.91 bitrate= 920.2kbits/s    frame= 3133 fps= 26 q=23.0 size=   14084kB time=00:02:05.46 bitrate= 919.6kbits/s    frame= 3146 fps= 26 q=23.0 size=   14134kB time=00:02:05.99 bitrate= 918.9kbits/s    frame= 3159 fps= 26 q=23.0 size=   14198kB time=00:02:06.55 bitrate= 919.0kbits/s    frame= 3171 fps= 26 q=23.0 size=   14254kB time=00:02:06.95 bitrate= 919.7kbits/s    frame= 3183 fps= 26 q=23.0 size=   14299kB time=00:02:07.51 bitrate= 918.6kbits/s    frame= 3196 fps= 26 q=23.0 size=   14352kB time=00:02:08.04 bitrate= 918.2kbits/s    frame= 3209 fps= 26 q=23.0 size=   14413kB time=00:02:08.55 bitrate= 918.4kbits/s    frame= 3223 fps= 26 q=23.0 size=   14477kB time=00:02:09.11 bitrate= 918.6kbits/s    frame= 3235 fps= 26 q=23.0 size=   14525kB time=00:02:09.66 bitrate= 917.6kbits/s    frame= 3248 fps= 26 q=23.0 size=   14577kB time=00:02:10.22 bitrate= 917.0kbits/s    frame= 3262 fps= 26 q=23.0 size=   14652kB time=00:02:10.58 bitrate= 919.2kbits/s    frame= 3274 fps= 26 q=23.0 size=   14703kB time=00:02:11.13 bitrate= 918.5kbits/s    frame= 3287 fps= 26 q=23.0 size=   14753kB time=00:02:11.69 bitrate= 917.7kbits/s    frame= 3299 fps= 26 q=23.0 size=   14806kB time=00:02:12.18 bitrate= 917.6kbits/s    frame= 3312 fps= 26 q=23.0 size=   14912kB time=00:02:12.59 bitrate= 921.3kbits/s    frame= 3325 fps= 26 q=23.0 size=   14972kB time=00:02:13.14 bitrate= 921.2kbits/s    frame= 3337 fps= 26 q=23.0 size=   15021kB time=00:02:13.69 bitrate= 920.4kbits/s    frame= 3350 fps= 26 q=23.0 size=   15073kB time=00:02:14.25 bitrate= 919.8kbits/s    frame= 3363 fps= 26 q=23.0 size=   15136kB time=00:02:14.61 bitrate= 921.1kbits/s    frame= 3375 fps= 26 q=23.0 size=   15192kB time=00:02:15.17 bitrate= 920.7kbits/s    frame= 3388 fps= 26 q=23.0 size=   15238kB time=00:02:15.74 bitrate= 919.6kbits/s    frame= 3401 fps= 26 q=23.0 size=   15294kB time=00:02:16.23 bitrate= 919.6kbits/s    frame= 3415 fps= 26 q=23.0 size=   15363kB time=00:02:16.79 bitrate= 920.0kbits/s    frame= 3429 fps= 26 q=23.0 size=   15426kB time=00:02:17.34 bitrate= 920.1kbits/s    frame= 3441 fps= 26 q=23.0 size=   15475kB time=00:02:17.90 bitrate= 919.3kbits/s    frame= 3454 fps= 26 q=23.0 size=   15529kB time=00:02:18.28 bitrate= 920.0kbits/s    frame= 3467 fps= 26 q=23.0 size=   15596kB time=00:02:18.81 bitrate= 920.3kbits/s    frame= 3480 fps= 26 q=23.0 size=   15645kB time=00:02:19.37 bitrate= 919.6kbits/s    frame= 3493 fps= 26 q=23.0 size=   15700kB time=00:02:19.90 bitrate= 919.3kbits/s    frame= 3504 fps= 26 q=23.0 size=   15754kB time=00:02:20.33 bitrate= 919.6kbits/s    frame= 3518 fps= 26 q=23.0 size=   15816kB time=00:02:20.82 bitrate= 920.0kbits/s    frame= 3531 fps= 26 q=23.0 size=   15871kB time=00:02:21.37 bitrate= 919.6kbits/s    frame= 3543 fps= 26 q=23.0 size=   15917kB time=00:02:21.95 bitrate= 918.5kbits/s    frame= 3556 fps= 26 q=23.0 size=   15977kB time=00:02:22.48 bitrate= 918.6kbits/s    frame= 3569 fps= 26 q=23.0 size=   16090kB time=00:02:23.04 bitrate= 921.5kbits/s    frame= 3583 fps= 26 q=23.0 size=   16146kB time=00:02:23.55 bitrate= 921.4kbits/s    frame= 3595 fps= 26 q=23.0 size=   16191kB time=00:02:24.00 bitrate= 921.1kbits/s    frame= 3610 fps= 26 q=23.0 size=   16263kB time=00:02:24.49 bitrate= 922.0kbits/s    frame= 3622 fps= 26 q=23.0 size=   16319kB time=00:02:25.02 bitrate= 921.8kbits/s    frame= 3635 fps= 26 q=23.0 size=   16370kB time=00:02:25.58 bitrate= 921.2kbits/s    frame= 3648 fps= 26 q=23.0 size=   16429kB time=00:02:26.13 bitrate= 921.0kbits/s    frame= 3660 fps= 26 q=23.0 size=   16481kB time=00:02:26.52 bitrate= 921.5kbits/s    frame= 3673 fps= 26 q=23.0 size=   16543kB time=00:02:27.05 bitrate= 921.6kbits/s    frame= 3686 fps= 26 q=23.0 size=   16596kB time=00:02:27.58 bitrate= 921.2kbits/s    frame= 3699 fps= 26 q=23.0 size=   16651kB time=00:02:28.14 bitrate= 920.8kbits/s    frame= 3711 fps= 26 q=23.0 size=   16705kB time=00:02:28.69 bitrate= 920.3kbits/s    frame= 3723 fps= 26 q=23.0 size=   16766kB time=00:02:29.10 bitrate= 921.2kbits/s    frame= 3736 fps= 26 q=23.0 size=   16814kB time=00:02:29.63 bitrate= 920.5kbits/s    frame= 3749 fps= 26 q=23.0 size=   16872kB time=00:02:30.16 bitrate= 920.4kbits/s    frame= 3749 fps= 25 q=23.0 size=   16872kB time=00:02:30.16 bitrate= 920.4kbits/s    frame= 3763 fps= 25 q=23.0 size=   16937kB time=00:02:30.72 bitrate= 920.6kbits/s    frame= 3777 fps= 25 q=23.0 size=   17003kB time=00:02:31.27 bitrate= 920.8kbits/s    frame= 3791 fps= 25 q=23.0 size=   17057kB time=00:02:31.81 bitrate= 920.4kbits/s    frame= 3811 fps= 25 q=23.0 size=   17199kB time=00:02:32.72 bitrate= 922.5kbits/s    frame= 3819 fps= 25 q=23.0 size=   17240kB time=00:02:32.92 bitrate= 923.6kbits/s    frame= 3835 fps= 25 q=23.0 size=   17303kB time=00:02:33.64 bitrate= 922.6kbits/s    frame= 3849 fps= 25 q=23.0 size=   17368kB time=00:02:34.20 bitrate= 922.7kbits/s    frame= 3862 fps= 25 q=23.0 size=   17417kB time=00:02:34.75 bitrate= 922.0kbits/s    frame= 3876 fps= 25 q=23.0 size=   17481kB time=00:02:35.26 bitrate= 922.3kbits/s    frame= 3889 fps= 25 q=23.0 size=   17538kB time=00:02:35.69 bitrate= 922.8kbits/s    frame= 3908 fps= 25 q=23.0 size=   17620kB time=00:02:36.56 bitrate= 921.9kbits/s    frame= 3925 fps= 25 q=23.0 size=   17692kB time=00:02:37.23 bitrate= 921.8kbits/s    frame= 3949 fps= 25 q=23.0 size=   17802kB time=00:02:38.21 bitrate= 921.8kbits/s    frame= 3970 fps= 25 q=23.0 size=   17885kB time=00:02:38.95 bitrate= 921.7kbits/s    frame= 3991 fps= 25 q=23.0 size=   17986kB time=00:02:39.85 bitrate= 921.7kbits/s    frame= 4012 fps= 25 q=23.0 size=   18073kB time=00:02:40.77 bitrate= 920.9kbits/s    frame= 4039 fps= 25 q=23.0 size=   18198kB time=00:02:41.68 bitrate= 922.0kbits/s    frame= 4069 fps= 25 q=23.0 size=   18374kB time=00:02:42.99 bitrate= 923.5kbits/s    frame= 4100 fps= 26 q=23.0 size=   18513kB time=00:02:44.24 bitrate= 923.3kbits/s    frame= 4133 fps= 26 q=23.0 size=   18654kB time=00:02:45.52 bitrate= 923.2kbits/s    frame= 4166 fps= 26 q=23.0 size=   18797kB time=00:02:46.83 bitrate= 923.0kbits/s    frame= 4197 fps= 26 q=23.0 size=   18940kB time=00:02:48.08 bitrate= 923.1kbits/s    frame= 4214 fps= 26 q=23.0 size=   19009kB time=00:02:48.68 bitrate= 923.1kbits/s    frame= 4227 fps= 26 q=23.0 size=   19066kB time=00:02:49.19 bitrate= 923.1kbits/s    frame= 4239 fps= 26 q=23.0 size=   19122kB time=00:02:49.77 bitrate= 922.7kbits/s    frame= 4252 fps= 26 q=23.0 size=   19178kB time=00:02:50.30 bitrate= 922.5kbits/s    frame= 4265 fps= 26 q=23.0 size=   19228kB time=00:02:50.86 bitrate= 921.9kbits/s    frame= 4279 fps= 26 q=23.0 size=   19290kB time=00:02:51.37 bitrate= 922.1kbits/s    frame= 4292 fps= 26 q=23.0 size=   19353kB time=00:02:51.92 bitrate= 922.1kbits/s    frame= 4305 fps= 26 q=23.0 size=   19408kB time=00:02:52.31 bitrate= 922.7kbits/s    frame= 4318 fps= 26 q=23.0 size=   19510kB time=00:02:52.84 bitrate= 924.7kbits/s    frame= 4330 fps= 26 q=23.0 size=   19563kB time=00:02:53.40 bitrate= 924.2kbits/s    frame= 4344 fps= 26 q=23.0 size=   19634kB time=00:02:53.95 bitrate= 924.6kbits/s    frame= 4356 fps= 26 q=23.0 size=   19678kB time=00:02:54.51 bitrate= 923.8kbits/s    frame= 4369 fps= 26 q=23.0 size=   19734kB time=00:02:54.85 bitrate= 924.6kbits/s    frame= 4381 fps= 26 q=23.0 size=   19788kB time=00:02:55.40 bitrate= 924.2kbits/s    frame= 4394 fps= 26 q=23.0 size=   19853kB time=00:02:55.96 bitrate= 924.3kbits/s    frame= 4406 fps= 26 q=23.0 size=   19901kB time=00:02:56.34 bitrate= 924.5kbits/s    frame= 4415 fps= 26 q=23.0 size=   19933kB time=00:02:56.72 bitrate= 924.0kbits/s    frame= 4431 fps= 26 q=23.0 size=   20005kB time=00:02:57.47 bitrate= 923.4kbits/s    frame= 4445 fps= 26 q=23.0 size=   20073kB time=00:02:57.98 bitrate= 923.9kbits/s    frame= 4459 fps= 26 q=23.0 size=   20128kB time=00:02:58.54 bitrate= 923.5kbits/s    frame= 4471 fps= 26 q=23.0 size=   20178kB time=00:02:59.07 bitrate= 923.1kbits/s    frame= 4485 fps= 26 q=23.0 size=   20246kB time=00:02:59.63 bitrate= 923.3kbits/s    frame= 4497 fps= 26 q=23.0 size=   20304kB time=00:03:00.09 bitrate= 923.6kbits/s    frame= 4510 fps= 26 q=23.0 size=   20354kB time=00:03:00.54 bitrate= 923.5kbits/s    frame= 4523 fps= 26 q=23.0 size=   20410kB time=00:03:01.10 bitrate= 923.2kbits/s    frame= 4536 fps= 26 q=23.0 size=   20470kB time=00:03:01.63 bitrate= 923.2kbits/s    frame= 4548 fps= 26 q=23.0 size=   20528kB time=00:03:02.14 bitrate= 923.2kbits/s    frame= 4561 fps= 26 q=23.0 size=   20622kB time=00:03:02.57 bitrate= 925.3kbits/s    frame= 4574 fps= 26 q=23.0 size=   20682kB time=00:03:03.08 bitrate= 925.4kbits/s    frame= 4587 fps= 26 q=23.0 size=   20740kB time=00:03:03.64 bitrate= 925.2kbits/s    frame= 4600 fps= 26 q=23.0 size=   20801kB time=00:03:04.19 bitrate= 925.1kbits/s    frame= 4611 fps= 26 q=23.0 size=   20843kB time=00:03:04.60 bitrate= 925.0kbits/s    frame= 4623 fps= 26 q=23.0 size=   20891kB time=00:03:05.15 bitrate= 924.3kbits/s    frame= 4636 fps= 26 q=23.0 size=   20957kB time=00:03:05.66 bitrate= 924.7kbits/s    frame= 4649 fps= 26 q=23.0 size=   21015kB time=00:03:06.22 bitrate= 924.4kbits/s    frame= 4662 fps= 26 q=23.0 size=   21069kB time=00:03:06.75 bitrate= 924.2kbits/s    frame= 4674 fps= 26 q=23.0 size=   21116kB time=00:03:07.20 bitrate= 924.0kbits/s    frame= 4689 fps= 26 q=23.0 size=   21191kB time=00:03:07.67 bitrate= 925.0kbits/s    frame= 4702 fps= 26 q=23.0 size=   21248kB time=00:03:08.22 bitrate= 924.8kbits/s    frame= 4714 fps= 26 q=23.0 size=   21294kB time=00:03:08.78 bitrate= 924.0kbits/s    frame= 4727 fps= 26 q=23.0 size=   21350kB time=00:03:09.33 bitrate= 923.8kbits/s    frame= 4740 fps= 26 q=23.0 size=   21417kB time=00:03:09.69 bitrate= 924.9kbits/s    frame= 4753 fps= 26 q=23.0 size=   21473kB time=00:03:10.25 bitrate= 924.6kbits/s    frame= 4765 fps= 26 q=23.0 size=   21519kB time=00:03:10.78 bitrate= 924.0kbits/s    frame= 4778 fps= 26 q=23.0 size=   21577kB time=00:03:11.34 bitrate= 923.8kbits/s    frame= 4790 fps= 26 q=23.0 size=   21635kB time=00:03:11.72 bitrate= 924.4kbits/s    frame= 4803 fps= 26 q=23.0 size=   21687kB time=00:03:12.28 bitrate= 923.9kbits/s    frame= 4815 fps= 26 q=23.0 size=   21779kB time=00:03:12.85 bitrate= 925.1kbits/s    frame= 4829 fps= 26 q=23.0 size=   21838kB time=00:03:13.34 bitrate= 925.3kbits/s    frame= 4842 fps= 26 q=23.0 size=   21892kB time=00:03:13.90 bitrate= 924.9kbits/s    frame= 4855 fps= 26 q=23.0 size=   21950kB time=00:03:14.43 bitrate= 924.8kbits/s    frame= 4869 fps= 26 q=23.0 size=   22017kB time=00:03:14.99 bitrate= 925.0kbits/s    frame= 4881 fps= 26 q=23.0 size=   22066kB time=00:03:15.37 bitrate= 925.2kbits/s    frame= 4894 fps= 26 q=23.0 size=   22115kB time=00:03:15.90 bitrate= 924.8kbits/s    frame= 4907 fps= 26 q=23.0 size=   22178kB time=00:03:16.46 bitrate= 924.8kbits/s    frame= 4920 fps= 26 q=23.0 size=   22242kB time=00:03:17.01 bitrate= 924.8kbits/s    frame= 4932 fps= 26 q=23.0 size=   22286kB time=00:03:17.40 bitrate= 924.9kbits/s    frame= 4945 fps= 26 q=23.0 size=   22344kB time=00:03:17.93 bitrate= 924.8kbits/s    frame= 4958 fps= 26 q=23.0 size=   22406kB time=00:03:18.46 bitrate= 924.8kbits/s    frame= 4971 fps= 26 q=23.0 size=   22467kB time=00:03:19.02 bitrate= 924.8kbits/s    frame= 4984 fps= 26 q=23.0 size=   22515kB time=00:03:19.57 bitrate= 924.2kbits/s    frame= 4995 fps= 26 q=23.0 size=   22558kB time=00:03:19.98 bitrate= 924.1kbits/s    frame= 5007 fps= 26 q=23.0 size=   22616kB time=00:03:20.53 bitrate= 923.9kbits/s    frame= 5021 fps= 26 q=23.0 size=   22684kB time=00:03:21.04 bitrate= 924.3kbits/s    frame= 5034 fps= 26 q=23.0 size=   22737kB time=00:03:21.60 bitrate= 923.9kbits/s    frame= 5048 fps= 26 q=23.0 size=   22792kB time=00:03:22.11 bitrate= 923.8kbits/s    frame= 5062 fps= 26 q=23.0 size=   22913kB time=00:03:22.67 bitrate= 926.1kbits/s    frame= 5074 fps= 26 q=23.0 size=   22964kB time=00:03:23.07 bitrate= 926.4kbits/s    frame= 5087 fps= 26 q=23.0 size=   23014kB time=00:03:23.58 bitrate= 926.0kbits/s    frame= 5100 fps= 26 q=23.0 size=   23067kB time=00:03:24.14 bitrate= 925.7kbits/s    frame= 5113 fps= 26 q=23.0 size=   23132kB time=00:03:24.69 bitrate= 925.8kbits/s    frame= 5125 fps= 26 q=23.0 size=   23185kB time=00:03:25.25 bitrate= 925.4kbits/s    frame= 5138 fps= 26 q=23.0 size=   23237kB time=00:03:25.61 bitrate= 925.8kbits/s    frame= 5151 fps= 26 q=23.0 size=   23297kB time=00:03:26.14 bitrate= 925.8kbits/s    frame= 5163 fps= 26 q=23.0 size=   23350kB time=00:03:26.70 bitrate= 925.4kbits/s    frame= 5176 fps= 26 q=23.0 size=   23410kB time=00:03:27.25 bitrate= 925.3kbits/s    frame= 5189 fps= 26 q=23.0 size=   23461kB time=00:03:27.81 bitrate= 924.8kbits/s    frame= 5202 fps= 26 q=23.0 size=   23516kB time=00:03:28.36 bitrate= 924.6kbits/s    frame= 5214 fps= 26 q=23.0 size=   23572kB time=00:03:28.81 bitrate= 924.8kbits/s    frame= 5229 fps= 26 q=23.0 size=   23643kB time=00:03:29.28 bitrate= 925.5kbits/s    frame= 5241 fps= 26 q=23.0 size=   23692kB time=00:03:29.83 bitrate= 924.9kbits/s    frame= 5254 fps= 26 q=23.0 size=   23748kB time=00:03:30.37 bitrate= 924.8kbits/s    frame= 5268 fps= 26 q=23.0 size=   23818kB time=00:03:30.90 bitrate= 925.2kbits/s    frame= 5280 fps= 26 q=23.0 size=   23865kB time=00:03:31.33 bitrate= 925.1kbits/s    frame= 5293 fps= 26 q=23.0 size=   23920kB time=00:03:31.84 bitrate= 925.0kbits/s    frame= 5306 fps= 26 q=23.0 size=   23975kB time=00:03:32.37 bitrate= 924.8kbits/s    frame= 5319 fps= 26 q=23.0 size=   24092kB time=00:03:32.93 bitrate= 926.9kbits/s    frame= 5331 fps= 26 q=23.0 size=   24138kB time=00:03:33.48 bitrate= 926.2kbits/s    frame= 5343 fps= 26 q=23.0 size=   24183kB time=00:03:33.87 bitrate= 926.3kbits/s    frame= 5355 fps= 26 q=23.0 size=   24243kB time=00:03:34.44 bitrate= 926.1kbits/s    frame= 5369 fps= 26 q=23.0 size=   24307kB time=00:03:34.93 bitrate= 926.4kbits/s    frame= 5382 fps= 26 q=23.0 size=   24361kB time=00:03:35.49 bitrate= 926.1kbits/s    frame= 5395 fps= 26 q=23.0 size=   24409kB time=00:03:36.04 bitrate= 925.5kbits/s    frame= 5409 fps= 26 q=23.0 size=   24478kB time=00:03:36.60 bitrate= 925.8kbits/s    frame= 5421 fps= 26 q=23.0 size=   24534kB time=00:03:36.98 bitrate= 926.3kbits/s    frame= 5434 fps= 26 q=23.0 size=   24586kB time=00:03:37.51 bitrate= 925.9kbits/s    frame= 5447 fps= 26 q=23.0 size=   24643kB time=00:03:38.05 bitrate= 925.8kbits/s    frame= 5460 fps= 26 q=23.0 size=   24700kB time=00:03:38.60 bitrate= 925.6kbits/s    frame= 5472 fps= 26 q=23.0 size=   24761kB time=00:03:39.01 bitrate= 926.2kbits/s    frame= 5485 fps= 26 q=23.0 size=   24812kB time=00:03:39.52 bitrate= 925.9kbits/s    frame= 5498 fps= 26 q=23.0 size=   24866kB time=00:03:40.07 bitrate= 925.6kbits/s    frame= 5511 fps= 26 q=23.0 size=   24925kB time=00:03:40.63 bitrate= 925.5kbits/s    frame= 5523 fps= 26 q=23.0 size=   24986kB time=00:03:41.16 bitrate= 925.5kbits/s    frame= 5535 fps= 26 q=23.0 size=   25032kB time=00:03:41.59 bitrate= 925.4kbits/s    frame= 5547 fps= 26 q=23.0 size=   25080kB time=00:03:42.14 bitrate= 924.9kbits/s    frame= 5561 fps= 26 q=23.0 size=   25191kB time=00:03:42.61 bitrate= 927.0kbits/s    frame= 5575 fps= 26 q=23.0 size=   25256kB time=00:03:43.17 bitrate= 927.1kbits/s    frame= 5587 fps= 26 q=23.0 size=   25304kB time=00:03:43.72 bitrate= 926.5kbits/s    frame= 5599 fps= 26 q=23.0 size=   25355kB time=00:03:44.28 bitrate= 926.1kbits/s    frame= 5613 fps= 26 q=23.0 size=   25422kB time=00:03:44.66 bitrate= 927.0kbits/s    frame= 5626 fps= 26 q=23.0 size=   25479kB time=00:03:45.19 bitrate= 926.8kbits/s    frame= 5639 fps= 26 q=23.0 size=   25527kB time=00:03:45.73 bitrate= 926.4kbits/s    frame= 5652 fps= 26 q=23.0 size=   25591kB time=00:03:46.28 bitrate= 926.4kbits/s    frame= 5664 fps= 26 q=23.0 size=   25649kB time=00:03:46.69 bitrate= 926.9kbits/s    frame= 5677 fps= 26 q=23.0 size=   25704kB time=00:03:47.20 bitrate= 926.8kbits/s    frame= 5690 fps= 26 q=23.0 size=   25754kB time=00:03:47.75 bitrate= 926.3kbits/s    frame= 5703 fps= 26 q=23.0 size=   25810kB time=00:03:48.31 bitrate= 926.1kbits/s    frame= 5715 fps= 26 q=23.0 size=   25872kB time=00:03:48.86 bitrate= 926.1kbits/s    frame= 5727 fps= 26 q=23.0 size=   25923kB time=00:03:49.27 bitrate= 926.3kbits/s    frame= 5739 fps= 26 q=23.0 size=   25969kB time=00:03:49.82 bitrate= 925.6kbits/s    frame= 5753 fps= 26 q=23.0 size=   26032kB time=00:03:50.31 bitrate= 925.9kbits/s    frame= 5766 fps= 26 q=23.0 size=   26097kB time=00:03:50.87 bitrate= 926.0kbits/s    frame= 5779 fps= 26 q=23.0 size=   26147kB time=00:03:51.40 bitrate= 925.6kbits/s    frame= 5792 fps= 26 q=23.0 size=   26209kB time=00:03:51.96 bitrate= 925.6kbits/s    frame= 5806 fps= 26 q=23.0 size=   26262kB time=00:03:52.34 bitrate= 925.9kbits/s    frame= 5818 fps= 26 q=23.0 size=   26362kB time=00:03:52.87 bitrate= 927.3kbits/s    frame= 5831 fps= 26 q=23.0 size=   26425kB time=00:03:53.41 bitrate= 927.4kbits/s    frame= 5844 fps= 26 q=23.0 size=   26486kB time=00:03:53.96 bitrate= 927.4kbits/s    frame= 5856 fps= 26 q=23.0 size=   26530kB time=00:03:54.37 bitrate= 927.3kbits/s    frame= 5869 fps= 26 q=23.0 size=   26586kB time=00:03:54.88 bitrate= 927.2kbits/s    frame= 5882 fps= 26 q=23.0 size=   26648kB time=00:03:55.43 bitrate= 927.2kbits/s    frame= 5895 fps= 26 q=23.0 size=   26708kB time=00:03:55.99 bitrate= 927.1kbits/s    frame= 5908 fps= 26 q=23.0 size=   26757kB time=00:03:56.54 bitrate= 926.6kbits/s    frame= 5919 fps= 26 q=23.0 size=   26801kB time=00:03:56.95 bitrate= 926.6kbits/s    frame= 5932 fps= 26 q=23.0 size=   26866kB time=00:03:57.48 bitrate= 926.7kbits/s    frame= 5945 fps= 26 q=23.0 size=   26926kB time=00:03:57.99 bitrate= 926.8kbits/s    frame= 5958 fps= 26 q=23.0 size=   26979kB time=00:03:58.55 bitrate= 926.5kbits/s    frame= 5971 fps= 26 q=23.0 size=   27030kB time=00:03:59.10 bitrate= 926.1kbits/s    frame= 5985 fps= 26 q=23.0 size=   27099kB time=00:03:59.66 bitrate= 926.3kbits/s    frame= 5998 fps= 26 q=23.0 size=   27160kB time=00:04:00.04 bitrate= 926.9kbits/s    frame= 6011 fps= 26 q=23.0 size=   27209kB time=00:04:00.57 bitrate= 926.5kbits/s    frame= 6023 fps= 26 q=23.0 size=   27262kB time=00:04:01.13 bitrate= 926.2kbits/s    frame= 6038 fps= 26 q=23.0 size=   27333kB time=00:04:01.64 bitrate= 926.6kbits/s    frame= 6042 fps= 26 q=23.0 size=   27350kB time=00:04:01.83 bitrate= 926.5kbits/s    frame= 6063 fps= 26 q=23.0 size=   27486kB time=00:04:02.75 bitrate= 927.5kbits/s    frame= 6075 fps= 26 q=23.0 size=   27539kB time=00:04:03.13 bitrate= 927.9kbits/s    frame= 6087 fps= 26 q=23.0 size=   27592kB time=00:04:03.71 bitrate= 927.5kbits/s    frame= 6101 fps= 26 q=23.0 size=   27655kB time=00:04:04.22 bitrate= 927.6kbits/s    frame= 6114 fps= 26 q=23.0 size=   27710kB time=00:04:04.78 bitrate= 927.4kbits/s    frame= 6127 fps= 26 q=23.0 size=   27765kB time=00:04:05.31 bitrate= 927.2kbits/s    frame= 6141 fps= 26 q=23.0 size=   27833kB time=00:04:05.87 bitrate= 927.4kbits/s    frame= 6153 fps= 26 q=23.0 size=   27886kB time=00:04:06.25 bitrate= 927.7kbits/s    frame= 6166 fps= 26 q=23.0 size=   27937kB time=00:04:06.78 bitrate= 927.4kbits/s    frame= 6179 fps= 26 q=23.0 size=   27997kB time=00:04:07.34 bitrate= 927.3kbits/s    frame= 6192 fps= 26 q=23.0 size=   28056kB time=00:04:07.89 bitrate= 927.1kbits/s    frame= 6205 fps= 26 q=23.0 size=   28113kB time=00:04:08.45 bitrate= 927.0kbits/s    frame= 6217 fps= 26 q=23.0 size=   28160kB time=00:04:08.81 bitrate= 927.1kbits/s    frame= 6230 fps= 26 q=23.0 size=   28219kB time=00:04:09.34 bitrate= 927.1kbits/s    frame= 6243 fps= 26 q=23.0 size=   28283kB time=00:04:09.90 bitrate= 927.2kbits/s    frame= 6256 fps= 26 q=23.0 size=   28333kB time=00:04:10.45 bitrate= 926.7kbits/s    frame= 6256 fps= 25 q=23.0 size=   28333kB time=00:04:10.47 bitrate= 926.6kbits/s    frame= 6277 fps= 26 q=23.0 size=   28425kB time=00:04:11.35 bitrate= 926.4kbits/s    frame= 6292 fps= 26 q=23.0 size=   28497kB time=00:04:11.90 bitrate= 926.7kbits/s    frame= 6317 fps= 26 q=23.0 size=   28641kB time=00:04:12.99 bitrate= 927.4kbits/s    frame= 6336 fps= 26 q=23.0 size=   28730kB time=00:04:13.55 bitrate= 928.3kbits/s    frame= 6349 fps= 26 q=23.0 size=   28789kB time=00:04:14.10 bitrate= 928.1kbits/s    frame= 6361 fps= 26 q=23.0 size=   28838kB time=00:04:14.65 bitrate= 927.7kbits/s    frame= 6373 fps= 26 q=23.0 size=   28884kB time=00:04:15.21 bitrate= 927.1kbits/s    frame= 6387 fps= 26 q=23.0 size=   28952kB time=00:04:15.57 bitrate= 928.0kbits/s    frame= 6399 fps= 26 q=23.0 size=   29010kB time=00:04:16.13 bitrate= 927.9kbits/s    frame= 6412 fps= 26 q=23.0 size=   29057kB time=00:04:16.70 bitrate= 927.3kbits/s    frame= 6425 fps= 26 q=23.0 size=   29113kB time=00:04:17.21 bitrate= 927.2kbits/s    frame= 6439 fps= 26 q=23.0 size=   29181kB time=00:04:17.75 bitrate= 927.4kbits/s    frame= 6452 fps= 26 q=23.0 size=   29235kB time=00:04:18.30 bitrate= 927.2kbits/s    frame= 6463 fps= 26 q=23.0 size=   29283kB time=00:04:18.81 bitrate= 926.9kbits/s    frame= 6478 fps= 26 q=23.0 size=   29349kB time=00:04:19.22 bitrate= 927.5kbits/s    frame= 6491 fps= 26 q=23.0 size=   29413kB time=00:04:19.77 bitrate= 927.5kbits/s    frame= 6504 fps= 26 q=23.0 size=   29465kB time=00:04:20.33 bitrate= 927.2kbits/s    frame= 6517 fps= 26 q=23.0 size=   29520kB time=00:04:20.86 bitrate= 927.0kbits/s    frame= 6528 fps= 26 q=23.0 size=   29573kB time=00:04:21.33 bitrate= 927.0kbits/s    frame= 6542 fps= 26 q=23.0 size=   29635kB time=00:04:21.78 bitrate= 927.4kbits/s    frame= 6555 fps= 26 q=23.0 size=   29691kB time=00:04:22.33 bitrate= 927.2kbits/s    frame= 6568 fps= 26 q=23.0 size=   29790kB time=00:04:22.89 bitrate= 928.3kbits/s    frame= 6580 fps= 26 q=23.0 size=   29851kB time=00:04:23.44 bitrate= 928.2kbits/s    frame= 6593 fps= 26 q=23.0 size=   29908kB time=00:04:24.00 bitrate= 928.1kbits/s    frame= 6607 fps= 26 q=23.0 size=   29964kB time=00:04:24.55 bitrate= 927.8kbits/s    frame= 6619 fps= 26 q=23.0 size=   30013kB time=00:04:24.94 bitrate= 928.0kbits/s    frame= 6633 fps= 26 q=23.0 size=   30080kB time=00:04:25.45 bitrate= 928.3kbits/s    frame= 6646 fps= 26 q=23.0 size=   30138kB time=00:04:26.00 bitrate= 928.1kbits/s    frame= 6658 fps= 26 q=23.0 size=   30188kB time=00:04:26.54 bitrate= 927.8kbits/s    frame= 6670 fps= 26 q=23.0 size=   30236kB time=00:04:26.96 bitrate= 927.8kbits/s    frame= 6684 fps= 26 q=23.0 size=   30302kB time=00:04:27.48 bitrate= 928.1kbits/s    frame= 6697 fps= 26 q=23.0 size=   30365kB time=00:04:28.01 bitrate= 928.1kbits/s    frame= 6709 fps= 26 q=23.0 size=   30415kB time=00:04:28.54 bitrate= 927.8kbits/s    frame= 6722 fps= 26 q=23.0 size=   30465kB time=00:04:29.10 bitrate= 927.4kbits/s    frame= 6734 fps= 26 q=23.0 size=   30522kB time=00:04:29.48 bitrate= 927.8kbits/s    frame= 6747 fps= 26 q=23.0 size=   30586kB time=00:04:30.04 bitrate= 927.9kbits/s    frame= 6760 fps= 26 q=23.0 size=   30639kB time=00:04:30.59 bitrate= 927.6kbits/s    frame= 6773 fps= 26 q=23.0 size=   30698kB time=00:04:31.12 bitrate= 927.5kbits/s    frame= 6786 fps= 26 q=23.0 size=   30751kB time=00:04:31.68 bitrate= 927.2kbits/s    frame= 6799 fps= 26 q=23.0 size=   30805kB time=00:04:32.23 bitrate= 927.0kbits/s    frame= 6812 fps= 26 q=23.0 size=   30912kB time=00:04:32.64 bitrate= 928.8kbits/s    frame= 6826 fps= 26 q=23.0 size=   30979kB time=00:04:33.15 bitrate= 929.1kbits/s    frame= 6839 fps= 26 q=23.0 size=   31028kB time=00:04:33.68 bitrate= 928.7kbits/s    frame= 6852 fps= 26 q=23.0 size=   31087kB time=00:04:34.24 bitrate= 928.6kbits/s    frame= 6865 fps= 26 q=23.0 size=   31152kB time=00:04:34.79 bitrate= 928.7kbits/s    frame= 6877 fps= 26 q=23.0 size=   31202kB time=00:04:35.33 bitrate= 928.4kbits/s    frame= 6890 fps= 26 q=23.0 size=   31252kB time=00:04:35.71 bitrate= 928.6kbits/s    frame= 6903 fps= 26 q=23.0 size=   31307kB time=00:04:36.27 bitrate= 928.3kbits/s    frame= 6915 fps= 26 q=23.0 size=   31369kB time=00:04:36.80 bitrate= 928.4kbits/s    frame= 6928 fps= 26 q=23.0 size=   31423kB time=00:04:37.33 bitrate= 928.2kbits/s    frame= 6941 fps= 26 q=23.0 size=   31475kB time=00:04:37.89 bitrate= 927.9kbits/s    frame= 6955 fps= 26 q=23.0 size=   31537kB time=00:04:38.44 bitrate= 927.8kbits/s    frame= 6968 fps= 26 q=23.0 size=   31602kB time=00:04:39.00 bitrate= 927.9kbits/s    frame= 6981 fps= 26 q=23.0 size=   31653kB time=00:04:39.36 bitrate= 928.2kbits/s    frame= 6994 fps= 26 q=23.0 size=   31701kB time=00:04:39.91 bitrate= 927.8kbits/s    frame= 7006 fps= 26 q=23.0 size=   31762kB time=00:04:40.45 bitrate= 927.8kbits/s    frame= 7019 fps= 26 q=23.0 size=   31825kB time=00:04:41.00 bitrate= 927.8kbits/s    frame= 7032 fps= 26 q=23.0 size=   31874kB time=00:04:41.39 bitrate= 927.9kbits/s    frame= 7045 fps= 26 q=23.0 size=   31931kB time=00:04:41.92 bitrate= 927.8kbits/s    frame= 7058 fps= 26 q=23.0 size=   32038kB time=00:04:42.47 bitrate= 929.1kbits/s    frame= 7071 fps= 26 q=23.0 size=   32099kB time=00:04:43.03 bitrate= 929.1kbits/s    frame= 7084 fps= 26 q=23.0 size=   32147kB time=00:04:43.58 bitrate= 928.6kbits/s    frame= 7095 fps= 26 q=23.0 size=   32190kB time=00:04:43.99 bitrate= 928.6kbits/s    frame= 7107 fps= 26 q=23.0 size=   32247kB time=00:04:44.54 bitrate= 928.4kbits/s    frame= 7121 fps= 26 q=23.0 size=   32314kB time=00:04:45.03 bitrate= 928.7kbits/s    frame= 7135 fps= 26 q=23.0 size=   32369kB time=00:04:45.57 bitrate= 928.5kbits/s    frame= 7148 fps= 26 q=23.0 size=   32420kB time=00:04:46.12 bitrate= 928.2kbits/s    frame= 7162 fps= 26 q=23.0 size=   32494kB time=00:04:46.68 bitrate= 928.5kbits/s    frame= 7173 fps= 26 q=23.0 size=   32542kB time=00:04:47.08 bitrate= 928.6kbits/s    frame= 7187 fps= 26 q=23.0 size=   32595kB time=00:04:47.59 bitrate= 928.4kbits/s    frame= 7200 fps= 26 q=23.0 size=   32650kB time=00:04:48.13 bitrate= 928.3kbits/s    frame= 7213 fps= 26 q=23.0 size=   32714kB time=00:04:48.68 bitrate= 928.3kbits/s    frame= 7225 fps= 26 q=23.0 size=   32768kB time=00:04:49.24 bitrate= 928.1kbits/s    frame= 7238 fps= 26 q=23.0 size=   32820kB time=00:04:49.60 bitrate= 928.4kbits/s    frame= 7251 fps= 26 q=23.0 size=   32879kB time=00:04:50.15 bitrate= 928.3kbits/s    frame= 7263 fps= 26 q=23.0 size=   32933kB time=00:04:50.71 bitrate= 928.0kbits/s    frame= 7276 fps= 26 q=23.0 size=   32992kB time=00:04:51.26 bitrate= 927.9kbits/s    frame= 7289 fps= 26 q=23.0 size=   33044kB time=00:04:51.82 bitrate= 927.6kbits/s    frame= 7302 fps= 26 q=23.0 size=   33099kB time=00:04:52.35 bitrate= 927.5kbits/s    frame= 7316 fps= 26 q=23.0 size=   33210kB time=00:04:52.88 bitrate= 928.9kbits/s    frame= 7329 fps= 26 q=23.0 size=   33272kB time=00:04:53.27 bitrate= 929.4kbits/s    frame= 7342 fps= 26 q=23.0 size=   33323kB time=00:04:53.82 bitrate= 929.1kbits/s    frame= 7354 fps= 26 q=23.0 size=   33375kB time=00:04:54.36 bitrate= 928.8kbits/s    frame= 7367 fps= 26 q=23.0 size=   33442kB time=00:04:54.91 bitrate= 928.9kbits/s    frame= 7380 fps= 26 q=23.0 size=   33489kB time=00:04:55.29 bitrate= 929.0kbits/s    frame= 7393 fps= 26 q=23.0 size=   33545kB time=00:04:55.81 bitrate= 929.0kbits/s    frame= 7405 fps= 26 q=23.0 size=   33602kB time=00:04:56.36 bitrate= 928.8kbits/s    frame= 7418 fps= 26 q=23.0 size=   33659kB time=00:04:56.92 bitrate= 928.7kbits/s    frame= 7431 fps= 26 q=23.0 size=   33715kB time=00:04:57.47 bitrate= 928.5kbits/s    frame= 7443 fps= 26 q=23.0 size=   33759kB time=00:04:57.85 bitrate= 928.5kbits/s    frame= 7455 fps= 25 q=23.0 size=   33820kB time=00:04:58.43 bitrate= 928.4kbits/s    frame= 7469 fps= 25 q=23.0 size=   33884kB time=00:04:58.94 bitrate= 928.5kbits/s    frame= 7483 fps= 25 q=23.0 size=   33940kB time=00:04:59.50 bitrate= 928.3kbits/s    frame= 7495 fps= 25 q=23.0 size=   33987kB time=00:05:00.03 bitrate= 928.0kbits/s    frame= 7509 fps= 25 q=23.0 size=   34056kB time=00:05:00.59 bitrate= 928.1kbits/s    frame= 7521 fps= 25 q=23.0 size=   34113kB time=00:05:00.99 bitrate= 928.4kbits/s    frame= 7535 fps= 25 q=23.0 size=   34168kB time=00:05:01.50 bitrate= 928.3kbits/s    frame= 7548 fps= 25 q=23.0 size=   34227kB time=00:05:02.06 bitrate= 928.2kbits/s    frame= 7560 fps= 25 q=23.0 size=   34323kB time=00:05:02.61 bitrate= 929.2kbits/s    frame= 7573 fps= 25 q=23.0 size=   34387kB time=00:05:03.15 bitrate= 929.2kbits/s    frame= 7585 fps= 25 q=23.0 size=   34436kB time=00:05:03.53 bitrate= 929.4kbits/s    frame= 7598 fps= 25 q=23.0 size=   34489kB time=00:05:04.06 bitrate= 929.2kbits/s    frame= 7611 fps= 25 q=23.0 size=   34547kB time=00:05:04.60 bitrate= 929.1kbits/s    frame= 7624 fps= 25 q=23.0 size=   34610kB time=00:05:05.15 bitrate= 929.1kbits/s    frame= 7635 fps= 25 q=23.0 size=   34652kB time=00:05:05.58 bitrate= 929.0kbits/s    frame= 7647 fps= 25 q=23.0 size=   34701kB time=00:05:06.11 bitrate= 928.6kbits/s    frame= 7661 fps= 25 q=23.0 size=   34768kB time=00:05:06.62 bitrate= 928.9kbits/s    frame= 7674 fps= 25 q=23.0 size=   34830kB time=00:05:07.18 bitrate= 928.9kbits/s    frame= 7688 fps= 25 q=23.0 size=   34883kB time=00:05:07.71 bitrate= 928.6kbits/s    frame= 7701 fps= 25 q=23.0 size=   34944kB time=00:05:08.27 bitrate= 928.6kbits/s    frame= 7713 fps= 25 q=23.0 size=   35000kB time=00:05:08.65 bitrate= 928.9kbits/s    frame= 7726 fps= 25 q=23.0 size=   35056kB time=00:05:09.18 bitrate= 928.8kbits/s    frame= 7739 fps= 25 q=23.0 size=   35115kB time=00:05:09.74 bitrate= 928.7kbits/s    frame= 7752 fps= 25 q=23.0 size=   35167kB time=00:05:10.29 bitrate= 928.4kbits/s    frame= 7764 fps= 25 q=23.0 size=   35213kB time=00:05:10.70 bitrate= 928.4kbits/s    frame= 7777 fps= 25 q=23.0 size=   35276kB time=00:05:11.21 bitrate= 928.6kbits/s    frame= 7790 fps= 25 q=23.0 size=   35340kB time=00:05:11.74 bitrate= 928.7kbits/s    frame= 7803 fps= 25 q=23.0 size=   35393kB time=00:05:12.30 bitrate= 928.4kbits/s    frame= 7816 fps= 25 q=23.0 size=   35490kB time=00:05:12.85 bitrate= 929.3kbits/s    frame= 7827 fps= 25 q=23.0 size=   35541kB time=00:05:13.26 bitrate= 929.4kbits/s    frame= 7839 fps= 25 q=23.0 size=   35597kB time=00:05:13.81 bitrate= 929.2kbits/s    frame= 7853 fps= 25 q=23.0 size=   35654kB time=00:05:14.32 bitrate= 929.2kbits/s    frame= 7866 fps= 25 q=23.0 size=   35704kB time=00:05:14.86 bitrate= 928.9kbits/s    frame= 7879 fps= 25 q=23.0 size=   35763kB time=00:05:15.39 bitrate= 928.9kbits/s    frame= 7893 fps= 25 q=23.0 size=   35833kB time=00:05:15.95 bitrate= 929.1kbits/s    frame= 7905 fps= 25 q=23.0 size=   35884kB time=00:05:16.33 bitrate= 929.3kbits/s    frame= 7918 fps= 25 q=23.0 size=   35936kB time=00:05:16.86 bitrate= 929.0kbits/s    frame= 7931 fps= 25 q=23.0 size=   35998kB time=00:05:17.42 bitrate= 929.0kbits/s    frame= 7944 fps= 25 q=23.0 size=   36060kB time=00:05:17.97 bitrate= 929.0kbits/s    frame= 7956 fps= 25 q=23.0 size=   36104kB time=00:05:18.38 bitrate= 929.0kbits/s    frame= 7969 fps= 25 q=23.0 size=   36161kB time=00:05:18.89 bitrate= 928.9kbits/s    frame= 7982 fps= 25 q=23.0 size=   36223kB time=00:05:19.42 bitrate= 929.0kbits/s    frame= 7995 fps= 25 q=23.0 size=   36282kB time=00:05:19.98 bitrate= 928.9kbits/s    frame= 8008 fps= 25 q=23.0 size=   36332kB time=00:05:20.53 bitrate= 928.5kbits/s    frame= 8019 fps= 25 q=23.0 size=   36375kB time=00:05:20.94 bitrate= 928.5kbits/s    frame= 8032 fps= 25 q=23.0 size=   36441kB time=00:05:21.47 bitrate= 928.6kbits/s    frame= 8045 fps= 25 q=23.0 size=   36501kB time=00:05:22.00 bitrate= 928.6kbits/s    frame= 8058 fps= 25 q=23.0 size=   36603kB time=00:05:22.56 bitrate= 929.6kbits/s    frame= 8071 fps= 25 q=23.0 size=   36655kB time=00:05:23.11 bitrate= 929.3kbits/s    frame= 8085 fps= 25 q=23.0 size=   36723kB time=00:05:23.63 bitrate= 929.6kbits/s    frame= 8098 fps= 25 q=23.0 size=   36782kB time=00:05:24.01 bitrate= 930.0kbits/s    frame= 8098 fps= 25 q=23.0 size=   36782kB time=00:05:24.03 bitrate= 929.9kbits/s    frame= 8113 fps= 25 q=23.0 size=   36844kB time=00:05:24.73 bitrate= 929.4kbits/s    frame= 8130 fps= 25 q=23.0 size=   36913kB time=00:05:25.48 bitrate= 929.0kbits/s    frame= 8147 fps= 25 q=23.0 size=   36997kB time=00:05:26.04 bitrate= 929.6kbits/s    frame= 8162 fps= 25 q=23.0 size=   37053kB time=00:05:26.59 bitrate= 929.4kbits/s    frame= 8180 fps= 25 q=23.0 size=   37136kB time=00:05:27.49 bitrate= 928.9kbits/s    frame= 8196 fps= 25 q=23.0 size=   37211kB time=00:05:28.02 bitrate= 929.3kbits/s    frame= 8213 fps= 25 q=23.0 size=   37281kB time=00:05:28.77 bitrate= 928.9kbits/s    frame= 8226 fps= 25 q=23.0 size=   37331kB time=00:05:29.32 bitrate= 928.6kbits/s    frame= 8227 fps= 25 q=23.0 size=   37339kB time=00:05:29.32 bitrate= 928.8kbits/s    frame= 8247 fps= 25 q=23.0 size=   37437kB time=00:05:30.05 bitrate= 929.2kbits/s    frame= 8261 fps= 25 q=23.0 size=   37493kB time=00:05:30.79 bitrate= 928.5kbits/s    frame= 8282 fps= 25 q=23.0 size=   37587kB time=00:05:31.50 bitrate= 928.8kbits/s    frame= 8283 fps= 25 q=23.0 size=   37592kB time=00:05:31.50 bitrate= 929.0kbits/s    frame= 8301 fps= 25 q=23.0 size=   37672kB time=00:05:32.24 bitrate= 928.9kbits/s    frame= 8312 fps= 25 q=23.0 size=   37766kB time=00:05:32.61 bitrate= 930.2kbits/s    frame= 8325 fps= 25 q=23.0 size=   37822kB time=00:05:33.16 bitrate= 930.0kbits/s    frame= 8326 fps= 25 q=23.0 size=   37825kB time=00:05:33.16 bitrate= 930.1kbits/s    frame= 8360 fps= 25 q=23.0 size=   37971kB time=00:05:34.63 bitrate= 929.5kbits/s    frame= 8387 fps= 25 q=23.0 size=   38098kB time=00:05:35.72 bitrate= 929.6kbits/s    frame= 8413 fps= 25 q=23.0 size=   38208kB time=00:05:36.64 bitrate= 929.8kbits/s    